<svg width="20" height="20" viewBox="0 0 20 20" fill="none" xmlns="http://www.w3.org/2000/svg">
<path d="M19.2968 7.76058C19.2072 7.48245 19.0423 7.23455 18.8205 7.04432C18.5987 6.85409 18.3285 6.72896 18.04 6.68277L13.5123 5.94695L11.4134 1.86827C11.2797 1.60862 11.0771 1.39081 10.8277 1.23874C10.5784 1.08667 10.292 1.00623 9.99993 1.00623C9.70788 1.00623 9.42146 1.08667 9.17212 1.23874C8.92278 1.39081 8.72015 1.60862 8.58645 1.86827L6.48755 5.94695L1.95993 6.68277C1.67167 6.72968 1.40191 6.85509 1.18024 7.04523C0.95857 7.23538 0.793556 7.4829 0.703306 7.76066C0.613055 8.03841 0.601055 8.33566 0.668622 8.61978C0.736189 8.9039 0.880712 9.16393 1.08633 9.37132L4.3168 12.6279L3.61758 17.1613C3.57272 17.45 3.60835 17.7456 3.72057 18.0154C3.83279 18.2852 4.01724 18.5188 4.25365 18.6905C4.49005 18.8623 4.76924 18.9655 5.06052 18.9889C5.35179 19.0122 5.64387 18.9548 5.90462 18.8229L9.99993 16.7569L14.0954 18.8229C14.3561 18.9545 14.6481 19.0118 14.9393 18.9883C15.2305 18.9648 15.5095 18.8616 15.7458 18.6899C15.9822 18.5182 16.1666 18.2847 16.2789 18.015C16.3912 17.7454 16.427 17.45 16.3824 17.1613L15.6832 12.6279L18.9136 9.37132C19.1199 9.16433 19.2649 8.9043 19.3325 8.62002C19.4001 8.33573 19.3878 8.03828 19.2968 7.76058ZM18.0261 8.49105L14.3515 12.1953L15.147 17.3519C15.1568 17.4137 15.1494 17.477 15.1255 17.5348C15.1016 17.5926 15.0622 17.6426 15.0116 17.6794C14.961 17.7161 14.9012 17.7382 14.8388 17.743C14.7765 17.7479 14.714 17.7354 14.6583 17.7069L9.99993 15.3569L5.34149 17.707C5.2858 17.7355 5.22333 17.748 5.16098 17.7431C5.09863 17.7382 5.03884 17.7162 4.98825 17.6795C4.93765 17.6427 4.89822 17.5926 4.87432 17.5349C4.85043 17.4771 4.843 17.4138 4.85286 17.352L5.64837 12.1953L1.9738 8.49101C1.92991 8.44667 1.89908 8.39112 1.88467 8.33043C1.87027 8.26974 1.87284 8.20625 1.89212 8.14692C1.91139 8.0876 1.94662 8.03472 1.99395 7.99409C2.04128 7.95345 2.09888 7.92663 2.16044 7.91655L7.31047 7.0796L9.69794 2.44027C9.72648 2.38477 9.76977 2.33822 9.82305 2.30571C9.87632 2.27321 9.93752 2.25601 9.99993 2.25601C10.0623 2.25601 10.1235 2.27321 10.1768 2.30571C10.2301 2.33822 10.2734 2.38477 10.3019 2.44027L12.6894 7.0796L17.8394 7.91655C17.901 7.92663 17.9586 7.95345 18.0059 7.99409C18.0532 8.03472 18.0885 8.0876 18.1077 8.14692C18.127 8.20625 18.1296 8.26974 18.1152 8.33043C18.1008 8.39112 18.07 8.44671 18.0261 8.49105Z" fill="white"/>
</svg>
